<svg width="27" height="26" viewBox="0 0 27 26" fill="none" xmlns="http://www.w3.org/2000/svg">
<path d="M23.9025 11.7298C24.1794 12.0782 24.3327 12.5307 24.3327 13C24.3327 13.4693 24.1794 13.9219 23.9025 14.2702C22.1492 16.4125 18.1582 20.5833 13.4994 20.5833C8.8405 20.5833 4.84957 16.4125 3.09623 14.2702C2.81931 13.9219 2.66602 13.4693 2.66602 13C2.66602 12.5307 2.81931 12.0782 3.09623 11.7298C4.84957 9.58749 8.8405 5.41666 13.4994 5.41666C18.1582 5.41666 22.1492 9.58749 23.9025 11.7298Z" stroke="#98989A" stroke-width="1.5" stroke-linecap="round" stroke-linejoin="round"/>
<path d="M13.4999 16.3702C15.3444 16.3702 16.8396 14.8612 16.8396 12.9998C16.8396 11.1385 15.3444 9.62952 13.4999 9.62952C11.6554 9.62952 10.1602 11.1385 10.1602 12.9998C10.1602 14.8612 11.6554 16.3702 13.4999 16.3702Z" stroke="#98989A" stroke-width="1.5" stroke-linecap="round" stroke-linejoin="round"/>
</svg>
